<?xml version="1.0" standalone="no"?>
<!DOCTYPE svg PUBLIC "-//W3C//DTD SVG 20010904//EN"
 "http://www.w3.org/TR/2001/REC-SVG-20010904/DTD/svg10.dtd">
<svg version="1.0" xmlns="http://www.w3.org/2000/svg"
 width="1304.000000pt" height="1164.000000pt" viewBox="0 0 1304.000000 1164.000000"
 preserveAspectRatio="xMidYMid meet">

<g transform="translate(0.000000,1164.000000) scale(0.100000,-0.100000)"
fill="#000000" stroke="none">
<path d="M6285 10330 c-360 -30 -560 -67 -960 -176 -55 -14 -122 -32 -150 -38
-27 -6 -60 -17 -73 -24 -12 -7 -27 -10 -32 -7 -5 3 -11 2 -14 -3 -3 -5 -30
-15 -61 -22 -31 -7 -58 -17 -61 -22 -3 -4 -14 -8 -25 -8 -10 0 -38 -9 -62 -19
-23 -11 -53 -23 -67 -27 -124 -35 -704 -364 -934 -528 -80 -58 -209 -165 -380
-316 -264 -232 -666 -649 -666 -690 0 -5 -22 -43 -50 -83 -27 -41 -50 -77 -50
-81 0 -5 -13 -25 -29 -45 -16 -20 -40 -57 -53 -81 -13 -25 -46 -79 -73 -120
-210 -321 -363 -623 -493 -970 -85 -229 -137 -443 -192 -795 -49 -312 -63
-848 -30 -1150 45 -413 129 -842 210 -1079 199 -579 361 -910 620 -1272 30
-42 60 -85 66 -96 86 -146 625 -713 850 -894 409 -328 819 -559 1322 -745 485
-180 1043 -275 1669 -286 325 -6 456 1 713 38 481 68 1037 237 1395 423 525
272 1124 741 1459 1141 88 105 116 141 276 350 139 182 395 603 497 815 115
242 181 440 264 789 70 298 109 505 119 641 5 63 13 169 19 235 40 479 13 790
-130 1499 -67 333 -98 455 -162 626 -40 106 -42 110 -114 255 -85 169 -124
242 -169 312 -19 29 -34 55 -34 57 0 14 -170 281 -230 360 -41 54 -85 113 -98
130 -30 42 -62 81 -163 206 -333 409 -860 855 -1244 1052 -38 20 -104 55 -145
78 -96 52 -255 132 -300 150 -19 7 -66 29 -105 48 -91 44 -243 101 -375 141
-58 18 -116 37 -130 42 -36 13 -601 124 -755 148 -71 11 -182 25 -245 31 -159
15 -504 20 -625 10z m610 -580 c172 -11 336 -29 535 -60 69 -10 146 -21 171
-25 l46 -6 7 -162 c4 -89 6 -669 4 -1288 l-3 -1126 -104 -7 c-57 -3 -178 -6
-269 -6 -144 0 -163 2 -158 15 3 9 8 495 11 1080 5 1015 5 1064 -12 1069 -118
34 -724 43 -938 13 -66 -10 -132 -20 -147 -23 l-28 -6 0 -746 c0 -971 11
-2048 21 -2064 7 -10 112 -12 534 -9 l525 3 -2 -261 -3 -262 -537 1 -538 0 0
-1213 c0 -668 3 -1579 7 -2025 l6 -812 36 -12 c27 -10 155 -13 526 -13 270 0
502 3 516 7 l27 8 7 387 c4 214 4 838 -1 1388 -11 1170 -11 1615 -3 1621 10 6
378 34 446 34 l63 0 0 -1243 c0 -684 3 -1541 7 -1904 l6 -661 -39 -20 c-48
-24 -222 -64 -404 -93 -123 -20 -174 -22 -560 -22 -449 -1 -599 10 -920 64
-172 29 -230 47 -241 76 -5 14 -9 1682 -10 4100 -1 3600 1 4077 14 4084 25 14
305 67 469 89 288 38 629 49 933 30z m1395 -301 c85 -33 205 -86 265 -118 229
-121 500 -305 655 -445 103 -93 376 -369 430 -435 25 -30 70 -84 100 -120 30
-36 81 -98 113 -138 60 -75 238 -343 298 -448 18 -33 44 -78 56 -100 53 -92
135 -260 154 -313 11 -31 24 -65 29 -74 6 -10 15 -49 21 -88 13 -84 4 -105
-63 -144 -102 -58 -212 -55 -312 9 -66 42 -99 85 -241 310 -211 334 -233 367
-366 537 -221 282 -360 434 -490 534 -35 27 -73 57 -84 67 -29 27 -154 108
-192 123 -25 11 -34 11 -40 1 -7 -10 -6 -1697 1 -1779 1 -16 3 -113 4 -217 2
-164 4 -192 19 -207 16 -15 60 -16 562 -13 l546 4 -3 -255 c-2 -140 -7 -259
-12 -263 -13 -14 -89 -17 -610 -25 -273 -5 -501 -12 -508 -16 -21 -13 -9
-3350 13 -3428 9 -36 14 -33 138 88 56 55 147 138 202 185 186 161 420 415
557 606 106 148 319 528 398 713 23 52 47 109 54 125 54 120 226 745 226 822
0 16 9 71 20 121 47 222 28 210 296 194 145 -8 213 -16 234 -27 17 -9 30 -17
30 -18 0 -1 -5 -18 -10 -37 -11 -37 -39 -225 -38 -250 3 -50 -111 -553 -162
-715 -30 -96 -92 -269 -100 -280 -4 -5 -13 -28 -20 -50 -39 -121 -197 -448
-321 -662 -58 -100 -162 -254 -223 -328 -145 -179 -415 -458 -591 -610 -44
-39 -82 -72 -85 -76 -14 -15 -260 -209 -266 -209 -3 0 -23 -13 -43 -29 -20
-16 -64 -44 -96 -62 -33 -18 -62 -35 -65 -38 -3 -3 -52 -30 -110 -59 -58 -29
-114 -59 -125 -65 -11 -7 -43 -26 -72 -44 -28 -17 -70 -37 -92 -43 -22 -6 -90
-33 -151 -60 -62 -28 -119 -50 -127 -50 -13 0 -14 80 -7 672 6 573 6 1500 1
3943 0 242 3 1094 8 1893 7 1320 9 1452 24 1452 9 0 86 -27 171 -61z m-3249
29 c0 -7 1 -543 2 -1190 2 -1169 2 -1177 -18 -1182 -30 -8 -457 -6 -478 3 -17
6 -18 42 -17 768 0 419 -3 764 -8 767 -11 6 -64 -29 -162 -108 -117 -94 -509
-457 -565 -522 -141 -165 -229 -288 -340 -474 -77 -130 -239 -445 -254 -493
-5 -18 -46 -131 -91 -252 -86 -232 -125 -364 -113 -376 5 -4 239 -11 521 -15
l512 -7 -5 -171 c-3 -94 -8 -213 -11 -263 l-6 -93 -553 0 -553 0 -8 -77 c-8
-89 10 -460 31 -627 72 -580 227 -1124 431 -1512 99 -188 258 -427 389 -584
87 -105 311 -321 430 -415 125 -100 329 -245 344 -245 8 0 11 245 11 893 1
490 3 1124 5 1407 l5 515 256 3 256 2 -6 -62 c-9 -96 -10 -3228 -1 -3431 9
-204 14 -195 -89 -151 -60 26 -483 231 -580 281 -124 65 -394 267 -606 454
-329 290 -549 548 -727 854 -163 281 -147 251 -234 437 -258 552 -320 755
-406 1325 -36 243 -37 254 -37 543 0 338 22 568 90 940 48 267 150 607 234
785 143 301 232 479 258 517 16 24 78 117 138 208 290 439 472 635 926 996
297 237 551 401 760 491 144 62 267 90 269 61z"/>
</g>
</svg>
