<?xml version="1.0" standalone="no"?>
<!DOCTYPE svg PUBLIC "-//W3C//DTD SVG 20010904//EN"
 "http://www.w3.org/TR/2001/REC-SVG-20010904/DTD/svg10.dtd">
<svg version="1.0" xmlns="http://www.w3.org/2000/svg"
 width="1148.000000pt" height="348.000000pt" viewBox="0 0 1148.000000 348.000000"
 preserveAspectRatio="xMidYMid meet">

<g transform="translate(0.000000,348.000000) scale(0.100000,-0.100000)"
fill="#000000" stroke="none">
<path d="M7491 3058 c-155 -10 -348 -52 -441 -96 -327 -152 -491 -471 -404
-781 9 -30 34 -93 57 -140 84 -173 228 -283 747 -569 197 -108 450 -322 552
-466 165 -236 113 -538 -103 -596 -21 -6 -83 -15 -140 -20 -56 -5 -105 -12
-108 -15 -11 -12 17 -41 63 -64 l47 -24 123 21 c391 67 602 218 691 491 14 44
17 77 13 185 -5 111 -10 145 -37 226 -46 142 -111 249 -212 350 -106 106 -193
168 -421 298 -541 310 -623 380 -719 617 -46 113 -47 203 -3 296 40 83 88 137
156 175 47 25 63 29 133 28 274 -1 575 -164 764 -413 78 -102 107 -163 138
-284 14 -56 29 -106 34 -111 14 -15 39 59 50 147 5 45 21 150 34 232 32 193
46 297 43 299 -2 1 -52 23 -113 48 -324 136 -620 188 -944 166z"/>
<path d="M3735 2989 c-126 -3 -356 -7 -510 -8 -215 -2 -274 -5 -255 -13 188
-84 208 -97 238 -153 13 -27 15 -152 15 -1135 1 -1040 0 -1108 -18 -1162 -9
-32 -24 -63 -31 -69 -8 -6 -49 -14 -91 -18 -70 -5 -78 -8 -81 -28 -2 -15 4
-23 19 -28 30 -10 1997 -10 2026 -1 15 5 23 18 27 44 5 33 36 409 53 644 l6
87 -28 13 c-25 11 -29 10 -49 -15 -13 -15 -28 -51 -35 -80 -8 -29 -27 -79 -45
-112 -38 -73 -184 -228 -286 -304 -95 -71 -252 -160 -355 -202 -78 -32 -85
-33 -255 -37 -184 -4 -230 3 -230 35 0 10 -9 36 -21 57 -12 23 -24 73 -31 130
-14 125 -5 2144 10 2171 14 26 62 71 140 129 59 45 71 68 34 64 -9 -1 -120 -5
-247 -9z"/>
<path d="M5343 2975 c2 -5 40 -28 84 -51 45 -23 102 -56 127 -73 l46 -32 0
-552 c0 -304 3 -781 7 -1062 3 -280 3 -549 -1 -596 l-8 -87 -37 -14 c-47 -19
-161 -107 -161 -125 0 -11 78 -13 433 -13 239 0 468 -3 510 -6 62 -6 77 -4 77
7 0 17 -82 65 -170 99 l-65 26 -6 74 c-4 41 -7 562 -8 1156 l-1 1081 43 40
c24 22 75 59 115 83 40 23 72 45 72 49 0 3 -238 6 -530 6 -330 0 -529 -4 -527
-10z"/>
<path d="M9670 2981 c-20 -3 -30 -9 -24 -13 15 -10 86 -17 294 -28 148 -8 186
-14 244 -35 273 -101 505 -303 627 -547 22 -43 45 -78 52 -78 43 0 46 60 17
320 -11 96 -25 220 -31 275 -6 55 -12 101 -13 101 -6 5 -1139 10 -1166 5z"/>
<path d="M1480 2965 c0 -27 35 -33 240 -38 231 -6 276 -15 410 -79 78 -37 98
-54 246 -202 95 -96 196 -209 248 -278 48 -65 90 -118 92 -118 2 0 1 18 -2 39
-3 22 -18 185 -33 363 l-26 323 -588 3 c-511 2 -587 0 -587 -13z"/>
<path d="M2052 2193 c-5 -10 -17 -43 -27 -73 -24 -74 -40 -106 -87 -167 -68
-89 -191 -169 -331 -216 -57 -19 -91 -21 -409 -24 l-347 -4 -3 -599 c-2 -329
-6 -602 -10 -606 -4 -4 -45 -18 -90 -31 -45 -13 -86 -29 -90 -36 -4 -6 -8 -25
-8 -42 l0 -30 733 1 c1034 1 1310 3 1324 12 10 7 22 137 54 600 6 95 9 175 6
178 -3 3 -18 0 -34 -8 -22 -10 -45 -47 -108 -174 -130 -262 -220 -368 -424
-499 l-74 -48 -141 -9 c-171 -11 -376 -3 -425 18 -20 8 -53 32 -74 52 -75 72
-72 50 -75 512 -1 228 1 471 5 540 l8 125 33 3 c42 4 141 -28 257 -83 117 -56
184 -122 291 -286 46 -70 87 -130 92 -133 18 -11 21 22 21 276 1 364 -13 685
-33 731 -17 42 -22 44 -34 20z"/>
<path d="M10275 2188 c-9 -13 -42 -65 -73 -116 -120 -194 -199 -265 -353 -316
-93 -31 -204 -41 -600 -52 l-206 -6 -5 -572 c-7 -701 4 -649 -150 -691 -52
-14 -68 -22 -68 -36 0 -13 10 -20 33 -23 56 -9 1367 -14 1722 -7 l340 6 7 80
c4 44 15 188 23 320 9 132 19 264 22 294 l6 54 -39 -8 c-46 -8 -64 -21 -64
-46 0 -10 -28 -73 -61 -139 -52 -102 -77 -138 -161 -230 -105 -116 -183 -175
-309 -235 -107 -50 -165 -58 -373 -52 -156 5 -183 8 -206 25 -14 11 -49 31
-76 45 -28 14 -57 33 -65 43 -12 14 -14 108 -17 576 -3 503 -1 559 13 564 24
10 177 -24 265 -57 135 -52 174 -90 320 -306 47 -70 90 -128 95 -130 14 -4 21
1022 7 1031 -6 3 -18 -4 -27 -16z"/>
</g>
</svg>
